<svg width="92" height="114" viewBox="0 0 92 114" fill="none" xmlns="http://www.w3.org/2000/svg">
<path d="M0.957031 107.305V17.3956C0.957031 14.0218 3.692 11.2869 7.06577 11.2869H50.583C52.4381 11.2869 54.1927 12.1299 55.352 13.5781L73.9459 36.8066C74.8131 37.89 75.2856 39.2364 75.2856 40.6241V107.305C75.2856 110.679 72.5506 113.414 69.1769 113.414H7.06577C3.69201 113.414 0.957031 110.679 0.957031 107.305Z" fill="#ECECF4"/>
<path d="M16.7139 96.495V6.58579C16.7139 3.21203 19.4488 0.477051 22.8226 0.477051H69.2747L91.0425 27.6705V96.495C91.0425 99.8687 88.3075 102.604 84.9337 102.604H22.8226C19.4488 102.604 16.7139 99.8687 16.7139 96.495Z" fill="#DDDDE9"/>
<path d="M32.4707 35.729H72.2495" stroke="#ECECF4" stroke-width="7.18963" stroke-linecap="round"/>
<path d="M32.4707 55.2769H72.2495" stroke="#ECECF4" stroke-width="7.18963" stroke-linecap="round"/>
<path d="M32.4707 74.825H53.8781" stroke="#ECECF4" stroke-width="7.18963" stroke-linecap="round"/>
<path d="M71.6939 27.6086H91.0269L69.2504 0.474291V25.1651C69.2504 26.5147 70.3444 27.6086 71.6939 27.6086Z" fill="#BCBCD3"/>
</svg>
