<svg width="197" height="30" viewBox="0 0 197 30" fill="none" xmlns="http://www.w3.org/2000/svg">
<g transform="translate(-129.475 0)">
<path d="M143.921 6.89723V9.74456H138.357V25H135.039V9.74456H129.475V6.89723H143.921ZM153.115 14.1854C152.854 14.0983 152.488 14.0112 152.018 13.9241C151.565 13.8196 151.034 13.7674 150.425 13.7674C150.076 13.7674 149.702 13.8022 149.301 13.8719C148.918 13.9415 148.648 14.0025 148.491 14.0547V25H145.331V11.9911C145.94 11.7647 146.698 11.5557 147.603 11.3641C148.526 11.1552 149.545 11.0507 150.66 11.0507C150.869 11.0507 151.112 11.0681 151.391 11.1029C151.67 11.1203 151.948 11.1552 152.227 11.2074C152.506 11.2422 152.776 11.2945 153.037 11.3641C153.298 11.4164 153.507 11.4686 153.664 11.5209L153.115 14.1854ZM167.073 24.582C166.463 24.7388 165.671 24.8955 164.696 25.0522C163.72 25.2264 162.649 25.3135 161.483 25.3135C160.385 25.3135 159.462 25.1567 158.714 24.8433C157.982 24.5298 157.39 24.0944 156.937 23.5371C156.502 22.9799 156.188 22.3181 155.997 21.5519C155.805 20.7682 155.71 19.9149 155.71 18.9919V11.338H158.87V18.4955C158.87 19.9584 159.079 21.0033 159.497 21.6302C159.933 22.2572 160.682 22.5706 161.744 22.5706C162.127 22.5706 162.528 22.5532 162.945 22.5184C163.381 22.4835 163.703 22.44 163.912 22.3878V11.338H167.073V24.582ZM170.338 18.1821C170.338 17.172 170.495 16.2316 170.808 15.3609C171.122 14.4727 171.566 13.7064 172.141 13.0621C172.733 12.4177 173.447 11.9127 174.283 11.547C175.119 11.1813 176.059 10.9984 177.104 10.9984C178.393 10.9984 179.612 11.2335 180.761 11.7037L180.082 14.2898C179.716 14.1331 179.298 14.0025 178.828 13.898C178.375 13.7935 177.888 13.7413 177.365 13.7413C176.129 13.7413 175.188 14.1331 174.544 14.9168C173.9 15.683 173.577 16.7715 173.577 18.1821C173.577 19.5404 173.882 20.6202 174.492 21.4212C175.101 22.2049 176.129 22.5967 177.574 22.5967C178.114 22.5967 178.645 22.5445 179.168 22.44C179.69 22.3355 180.143 22.2049 180.526 22.0482L180.97 24.6604C180.622 24.8346 180.091 24.9913 179.377 25.1306C178.68 25.2699 177.957 25.3396 177.208 25.3396C176.042 25.3396 175.023 25.1654 174.152 24.8171C173.299 24.4514 172.585 23.9551 172.01 23.3282C171.453 22.6838 171.035 21.9263 170.756 21.0555C170.478 20.1674 170.338 19.2096 170.338 18.1821ZM186.578 16.667C186.979 16.249 187.405 15.8049 187.858 15.3347C188.311 14.8471 188.755 14.3682 189.19 13.898C189.626 13.4104 190.035 12.9489 190.418 12.5135C190.819 12.0607 191.158 11.6689 191.437 11.338H195.172C194.302 12.3133 193.379 13.3233 192.403 14.3682C191.445 15.4131 190.479 16.4319 189.504 17.4245C190.026 17.8599 190.575 18.3911 191.149 19.018C191.724 19.6275 192.281 20.2806 192.821 20.9772C193.361 21.6738 193.866 22.3704 194.336 23.0669C194.807 23.7635 195.198 24.4079 195.512 25H191.855C191.541 24.4601 191.176 23.8942 190.758 23.302C190.357 22.7099 189.922 22.1353 189.451 21.578C188.981 21.0207 188.502 20.4983 188.015 20.0106C187.527 19.5056 187.048 19.0789 186.578 18.7306V25H183.417V5.25152L186.578 4.72907V16.667Z" fill="white"/>
</g>
</svg>
